<svg width="378" height="153" viewBox="0 0 378 153" fill="none" xmlns="http://www.w3.org/2000/svg">
<path d="M57.5609 152.97C57.076 152.949 55.7274 152.845 54.5638 152.74L52.4483 152.548L48.9223 151.691C42.0472 150.018 37.478 148.218 32.3504 145.16C27.4311 142.226 24.5887 140.015 19.7737 135.377L17.5985 133.282L15.8823 131.012C14.9384 129.764 13.7536 128.135 13.2495 127.392L12.5429 126.021L12.2179 125.472L11.4678 124.068L11.138 123.331C9.07511 119.973 7.38646 116.406 6.13794 112.77C3.67713 105.603 1.66026 93.8603 0.358442 79.1213L0 75.0631L0.00121816 69.2137L0.270274 66.4206C1.13031 57.4922 3.19368 48.7069 5.94893 42.2423C9.04981 34.9667 13.2658 28.0343 18.1174 22.2337L19.9989 19.9842L22.4724 17.5304C25.4761 14.5506 26.7335 13.4592 29.6943 11.2619L31.9744 9.56975L34.4543 8.12031C37.4988 6.34082 39.251 5.46395 41.4297 4.62948C42.3509 4.27667 44.0328 3.59908 45.1673 3.12372L47.23 2.25942L49.6461 1.64624C55.3012 0.211029 61.3485 -0.306848 66.8164 0.175813C72.653 0.69102 77.9273 1.99789 83.3979 4.28443L85.3685 5.10809L87.6013 7.17633L88.5528 9.04139C89.759 11.4057 90.1869 12.607 90.523 14.5725L90.7917 16.1436L90.789 19.4605L90.3685 21.2961C89.4182 25.444 85.8773 34.8062 83.7347 38.8358L83.179 39.881L81.9706 41.302C80.5375 42.9872 79.5546 43.8394 76.9529 45.6531L75.0136 47.0049L72.8099 48.0444C69.6638 49.5285 66.2779 50.739 61.4388 52.1098L60.381 52.4094L56.6788 52.6959L52.624 52.5307C45.4115 52.237 40.0009 51.6613 36.0521 50.7675L34.4654 50.4083L33.6462 49.9734C32.4676 49.3477 31.7054 48.6798 30.4935 47.2112L29.4254 45.9169L28.5462 43.9483L28.0306 41.5211V38.0832L28.2804 36.8022C28.7943 34.1668 29.9653 31.5699 31.9671 28.6256L33.2133 26.7926L38.1676 21.8713L39.8846 20.6223C40.8289 19.9353 41.6751 19.3732 41.7651 19.3732C41.855 19.3732 41.9551 19.301 41.9874 19.2127C42.0732 18.9782 45.1603 17.0927 46.8611 16.2359L48.3264 15.4978L49.5412 15.7235L50.9491 17.0497V19.3696L50.0047 21.7056L49.2101 22.6779C48.7731 23.2127 47.9589 24.0955 47.4008 24.6398C46.8426 25.184 46.0156 26.1267 45.563 26.7346L44.74 27.84L43.9402 29.4112C43.5002 30.2753 43.0339 31.3751 42.9038 31.8552L42.6674 32.728L42.6651 34.8229L43.0492 36.1929L45.0432 38.2691L46.0128 38.9121C47.2312 39.7201 48.6979 40.3612 50.5084 40.8771L51.9187 41.2789L58.618 41.2816L60.3594 40.8833C63.7475 40.1084 66.5546 38.8937 69.6902 36.8455L71.5951 35.6013L73.1865 34.0822C76.2888 31.1219 78.0838 28.1601 78.918 24.6263L79.1897 23.4757L79.1762 19.9842L78.7969 18.7622C78.5883 18.0901 78.1724 17.0814 77.8729 16.5207L77.3281 15.5011L74.309 12.4073L66.9007 9.28747L62.2861 7.88004L59.5001 7.64397L56.3268 8.19495C52.3683 8.88225 51.1728 9.18094 47.8619 10.3099L45.2201 11.2106L43.4571 12.053C42.4875 12.5163 40.6232 13.5529 39.3142 14.3566C36.666 15.9824 34.8639 17.0367 33.6727 17.657C33.2363 17.8842 32.28 18.4731 31.5475 18.9658L30.2156 19.8616L28.7023 21.4068C27.87 22.2566 26.3849 23.8161 25.4021 24.8723L23.6152 26.7926L21.3613 30.1095C20.1217 31.9337 18.623 34.1422 18.0309 35.017C15.7642 38.3664 14.4752 40.8155 12.4329 45.6535L11.3246 48.2791L10.3441 51.3271C9.80489 53.0035 9.24662 54.8071 9.10355 55.3352C8.80418 56.4402 8.46436 57.5613 7.35734 61.0961L6.809 63.5429L6.44226 68.3409L6.31992 73.0544L6.58818 75.2365C6.73572 76.4367 6.94055 78.3354 7.04335 79.4557C7.14616 80.5762 7.38095 82.2259 7.5651 83.1218L7.89993 84.7507L8.10095 87.1947C8.21151 88.5389 8.37457 90.1101 8.4633 90.6862C8.55203 91.2623 8.78886 92.912 8.98959 94.3522L9.35455 96.9708L10.3129 100.375C10.8401 102.247 11.5601 104.956 11.913 106.395C12.2659 107.833 12.7007 109.377 12.8793 109.826C13.0578 110.275 13.3295 111.122 13.483 111.708L13.762 112.774L16.3897 118.712L19.474 123.29L21.8574 125.514C25.3654 128.788 25.3143 128.745 27.4141 130.188C30.0529 132.002 31.7369 133.229 33.3939 134.548C34.9268 135.767 36.0034 136.424 39.3142 138.162C43.7273 140.479 44.8084 140.915 49.2749 142.181C50.1476 142.429 51.6153 142.86 52.5364 143.141C53.4576 143.421 54.8856 143.792 55.7097 143.964L57.2083 144.278L64.4364 144.279L66.4082 143.884C74.9791 142.165 82.9278 137.534 90.6426 129.764C94.9423 125.433 98.5767 120.717 102.106 114.89L103.336 112.857L107.331 104.827L108.338 102.295C111.435 94.5091 113.402 86.9683 114.415 78.9898L114.77 76.1967L115.182 68.7851L114.971 65.2076C114.486 56.9606 113.103 50.5785 110.452 44.3612L109.641 42.459L108.486 40.474C107.851 39.3822 107.121 38.1354 106.865 37.7034L106.399 36.9178L106.4 34.2992L106.732 33.2518C106.915 32.6757 107.41 31.4878 107.833 30.612L108.602 29.0196L110.094 27.3414L112.166 26.015L113.362 25.7928L113.887 26.2243V26.5078C113.887 26.6638 114.552 28.1271 115.365 29.7597C120.568 40.206 123.638 51.477 124.852 64.5876L125.071 66.9443L125.063 78.6407L124.839 80.9974C124.181 87.933 123.155 93.6453 121.437 99.9386C121.332 100.323 120.894 101.736 120.463 103.08L119.68 105.523L119.348 106.055C119.165 106.348 118.744 107.293 118.411 108.156C117.584 110.303 115.322 115.312 114.319 117.221C112.461 120.755 111.948 121.552 110.775 122.72L109.302 124.778L108.01 126.215C107.019 127.609 105.774 129.267 105.243 129.9C104.713 130.534 103.891 131.537 103.418 132.131C101.523 134.507 96.2473 139.465 93.1836 141.749C92.7328 142.085 92.2681 142.442 92.1509 142.543C91.4831 143.116 90.2172 143.841 89.2933 144.181C88.7115 144.395 87.7595 144.856 87.1777 145.206C85.9219 145.961 83.5826 147.218 82.594 147.669C82.2062 147.846 81.3676 148.228 80.7306 148.519C77.5565 149.968 72.3066 151.557 68.5042 152.22C65.2766 152.782 60.5945 153.103 57.5599 152.97H57.5609Z" fill="#63622E"/>
<path d="M140.17 133.903C140.87 132.863 141.43 131.892 141.85 130.991C142.269 130.089 142.619 129.327 142.899 128.703C143.179 127.94 143.389 127.247 143.529 126.623C143.599 126.207 143.634 124.993 143.634 122.983C143.634 120.972 143.564 118.441 143.424 115.391C143.354 112.34 143.249 108.908 143.109 105.095C143.039 101.281 142.899 97.3986 142.689 93.4465C142.549 89.4945 142.374 85.6465 142.164 81.9025C142.025 78.1585 141.885 74.7958 141.745 71.8144C141.605 68.7637 141.465 66.2677 141.325 64.3264C141.185 62.3851 141.08 61.2757 141.01 60.9984C140.87 60.5824 140.625 60.1664 140.275 59.7504C139.575 58.9184 138.385 58.121 136.705 57.3584C140.275 56.457 143.004 55.729 144.894 55.1744C146.014 54.897 146.994 54.6197 147.834 54.3423C148.604 54.065 149.374 53.7877 150.144 53.5103C150.774 53.233 151.474 52.921 152.244 52.5743C153.014 52.1583 153.713 51.7077 154.343 51.2223C153.993 53.233 153.713 55.1744 153.504 57.0464C153.294 58.9184 153.119 60.6517 152.979 62.2464C152.839 64.0491 152.769 65.7824 152.769 67.4464C152.419 70.8438 152.209 74.5531 152.139 78.5745C152.139 82.5265 152.174 86.5478 152.244 90.6385C152.314 94.7292 152.454 98.7159 152.664 102.599C152.874 106.481 153.084 110.017 153.294 113.207C153.573 116.327 153.818 118.996 154.028 121.215C154.308 123.364 154.518 124.751 154.658 125.375C154.938 126.415 155.218 127.42 155.498 128.391C155.778 129.223 156.093 130.089 156.443 130.991C156.793 131.961 157.213 132.724 157.703 133.279H147.519C146.609 133.279 145.734 133.313 144.894 133.383C144.124 133.452 143.319 133.521 142.479 133.591C141.64 133.66 140.87 133.764 140.17 133.903Z" fill="#63622E"/>
<path d="M161.483 84.5025L180.801 84.7105C179.681 88.9398 178.841 92.5452 178.281 95.5266C177.791 98.5079 177.476 101.004 177.336 103.015C177.056 105.303 176.986 107.244 177.126 108.839C177.336 110.295 177.686 111.855 178.176 113.519C178.596 114.905 179.226 116.5 180.066 118.303C180.906 120.105 182.026 121.908 183.426 123.711C182.586 123.433 181.676 123.225 180.696 123.087C179.716 122.948 178.806 122.844 177.966 122.775C176.986 122.705 176.007 122.705 175.027 122.775C174.047 122.844 172.962 122.948 171.772 123.087C170.792 123.225 169.602 123.399 168.202 123.607C166.802 123.815 165.332 124.092 163.793 124.439C164.842 121.319 165.647 118.615 166.207 116.327C166.837 114.039 167.292 112.132 167.572 110.607C167.852 108.804 168.027 107.348 168.097 106.239C168.097 104.852 168.097 103.292 168.097 101.559C168.097 99.7559 168.097 98.0226 168.097 96.3586C168.097 94.6945 168.062 93.2385 167.992 91.9905C167.922 90.6732 167.782 89.8412 167.572 89.4945L166.522 88.4545C166.102 88.1078 165.472 87.6225 164.633 86.9985C163.863 86.3052 162.813 85.4732 161.483 84.5025ZM168.937 68.4864C170.407 67.7237 171.877 67.5157 173.347 67.8624C174.887 68.2091 176.077 68.8678 176.916 69.8384C177.756 70.8091 178.036 71.9531 177.756 73.2704C177.546 74.5878 176.426 75.8705 174.397 77.1185C172.367 78.2971 170.582 78.7131 169.042 78.3665C167.502 78.0198 166.417 77.2918 165.787 76.1824C165.157 75.0731 165.052 73.7904 165.472 72.3344C165.892 70.8091 167.047 69.5264 168.937 68.4864Z" fill="#63622E"/>
<path d="M180.276 73.6864C181.466 73.8944 182.691 74.0678 183.951 74.2064C185.141 74.2758 186.226 74.3451 187.206 74.4144C188.325 74.4838 189.41 74.5184 190.46 74.5184C191.51 74.5184 192.7 74.4838 194.03 74.4144C195.15 74.3451 196.48 74.2411 198.02 74.1024C199.629 73.9638 201.379 73.7558 203.269 73.4784C202.149 74.1024 201.274 74.7611 200.644 75.4545C200.014 76.1478 199.524 76.7718 199.174 77.3265C198.755 78.0198 198.475 78.6438 198.335 79.1985C198.195 79.7531 198.23 80.8971 198.44 82.6305C198.65 84.3638 198.93 86.3745 199.279 88.6625C199.699 90.9505 200.154 93.3425 200.644 95.8386C201.134 98.3346 201.624 100.623 202.114 102.703C202.674 104.783 203.164 106.516 203.584 107.903C204.074 109.289 204.459 109.948 204.739 109.879C205.019 109.879 205.439 109.185 205.999 107.799C206.629 106.412 207.329 104.713 208.099 102.703C208.869 100.623 209.674 98.3692 210.513 95.9426C211.353 93.4465 212.088 91.1239 212.718 88.9745C213.348 86.8252 213.838 85.0225 214.188 83.5665C214.608 82.0412 214.783 81.1398 214.713 80.8625C214.503 80.5851 214.258 80.2038 213.978 79.7185C213.488 78.9558 212.403 77.6385 210.723 75.7664C212.753 75.9051 214.503 76.0438 215.973 76.1824C217.443 76.2518 218.633 76.3558 219.543 76.4945C220.593 76.6331 221.433 76.7371 222.062 76.8065C222.692 76.8758 223.602 76.8758 224.792 76.8065C225.772 76.8065 227.067 76.7718 228.677 76.7025C230.357 76.5638 232.422 76.3558 234.871 76.0785C233.052 77.1185 231.547 78.0545 230.357 78.8865C229.237 79.6491 228.362 80.3078 227.732 80.8625C226.962 81.5558 226.402 82.1451 226.052 82.6305C225.562 83.5318 224.687 85.6812 223.427 89.0785C222.867 90.5345 222.167 92.3372 221.328 94.4865C220.558 96.6359 219.613 99.2359 218.493 102.287C217.443 105.268 216.183 108.769 214.713 112.791C213.243 116.812 211.598 121.423 209.779 126.623L199.594 127.663C198.265 123.295 197.18 119.655 196.34 116.743C195.57 113.761 194.94 111.369 194.45 109.567C193.89 107.487 193.47 105.857 193.19 104.679C192.84 103.361 192.42 101.455 191.93 98.9586C191.44 96.3932 190.95 93.7932 190.46 91.1585C189.97 88.5238 189.48 86.1665 188.99 84.0865C188.5 81.9371 188.115 80.6198 187.835 80.1345C187.556 79.7878 187.066 79.3025 186.366 78.6785C185.806 78.1238 185.036 77.4651 184.056 76.7025C183.076 75.8705 181.816 74.8651 180.276 73.6864Z" fill="#63622E"/>
<path d="M256.814 114.247C258.774 114.247 260.594 114.039 262.274 113.623C263.674 113.276 265.004 112.721 266.264 111.959C267.593 111.127 268.468 109.913 268.888 108.319C270.288 108.596 271.478 108.839 272.458 109.047C273.438 109.185 274.278 109.324 274.978 109.463C275.748 109.671 276.413 109.809 276.973 109.879C277.533 110.017 278.198 110.156 278.967 110.295C279.667 110.433 280.507 110.607 281.487 110.815C282.537 110.953 283.762 111.161 285.162 111.439C284.112 111.3 283.027 111.404 281.907 111.751C280.857 112.097 279.842 112.479 278.862 112.895C277.743 113.38 276.693 113.969 275.713 114.663C275.083 115.079 274.348 115.703 273.508 116.535C272.738 117.367 271.618 118.164 270.148 118.927C268.678 119.689 266.719 120.348 264.269 120.903C261.889 121.388 258.809 121.561 255.03 121.423C250.48 121.284 246.665 120.487 243.586 119.031C240.506 117.505 238.021 115.668 236.131 113.519C234.241 111.3 232.877 108.908 232.037 106.343C231.197 103.777 230.742 101.385 230.672 99.1666C230.602 96.9479 231.267 94.6252 232.667 92.1985C234.066 89.7719 236.026 87.5532 238.546 85.5425C241.136 83.5318 244.251 81.9025 247.89 80.6545C251.53 79.3371 255.52 78.6785 259.859 78.6785C262.379 78.6785 264.689 78.9905 266.789 79.6145C268.958 80.1691 270.918 80.9318 272.668 81.9025C274.488 82.8732 276.063 83.9825 277.393 85.2305C278.723 86.4092 279.842 87.6225 280.752 88.8705C281.662 90.1879 282.432 91.5745 283.062 93.0305C283.622 94.2785 284.077 95.6999 284.427 97.2946C284.777 98.8892 284.882 100.519 284.742 102.183C279.422 102.321 275.118 102.425 271.828 102.495C268.608 102.564 266.089 102.599 264.269 102.599H255.974C254.715 102.599 253.07 102.633 251.04 102.703C249.01 102.772 246.525 102.876 243.586 103.015C243.936 105.788 244.81 107.937 246.21 109.463C247.68 110.919 249.22 112.028 250.83 112.791C252.65 113.623 254.645 114.108 256.814 114.247ZM247.365 95.5266C249.605 95.6652 251.46 95.7692 252.93 95.8386C254.47 95.9079 255.73 95.9772 256.709 96.0466C257.759 96.1159 258.599 96.1506 259.229 96.1506H261.854C263.604 96.1506 266.859 96.0466 271.618 95.8386C271.408 92.7879 270.743 90.4652 269.623 88.8705C268.573 87.2758 267.453 86.0972 266.264 85.3345C264.864 84.5025 263.324 84.0172 261.644 83.8785C257.094 83.9478 253.7 84.8838 251.46 86.6865C249.29 88.4892 247.925 91.4359 247.365 95.5266Z" fill="#63622E"/>
<path d="M287.682 65.4704C289.782 65.6784 291.531 65.8517 292.931 65.9904C294.401 66.1291 295.591 66.2331 296.501 66.3024C297.551 66.3717 298.391 66.4064 299.021 66.4064C299.651 66.4757 300.491 66.4757 301.54 66.4064C302.45 66.3371 303.64 66.2677 305.11 66.1984C306.58 66.0597 308.435 65.8517 310.675 65.5744C310.185 66.2677 309.8 66.8917 309.52 67.4464C309.24 67.9317 308.995 68.3824 308.785 68.7984L308.155 70.0464C308.015 70.4624 307.875 70.8784 307.735 71.2944C307.595 71.6411 307.455 72.0571 307.315 72.5424C307.245 73.0278 307.175 73.5478 307.105 74.1024H323.274L321.804 82.5265L307 81.6945C306.65 85.2305 306.405 87.9692 306.265 89.9105C306.125 91.8519 305.985 93.2732 305.845 94.1745L305.635 96.0466C305.425 98.6812 305.215 101.559 305.005 104.679C304.795 107.729 304.725 110.572 304.795 113.207C304.865 115.841 305.11 118.06 305.53 119.863C305.95 121.596 306.685 122.463 307.735 122.463C308.785 122.463 309.765 122.185 310.675 121.631C311.585 121.076 312.355 120.417 312.984 119.655C313.684 118.892 314.209 118.129 314.559 117.367C314.909 116.535 315.084 115.911 315.084 115.495C315.084 115.079 314.979 114.593 314.769 114.039C314.419 112.999 313.789 111.681 312.879 110.087C314.909 110.572 316.694 111.057 318.234 111.543C319.004 111.82 319.704 112.097 320.334 112.375C321.034 112.652 321.839 112.964 322.749 113.311C323.519 113.657 324.498 114.073 325.688 114.559C326.878 115.044 328.278 115.633 329.888 116.327C328.348 116.604 327.228 117.055 326.528 117.679C326.108 117.956 325.793 118.268 325.583 118.615C325.093 119.377 324.533 120.417 323.904 121.735C323.274 122.983 322.329 124.231 321.069 125.479C319.809 126.727 318.094 127.836 315.924 128.807C313.824 129.777 310.99 130.332 307.42 130.471C303.71 130.609 300.876 129.985 298.916 128.599C297.026 127.212 295.626 125.617 294.716 123.815C293.876 121.943 293.386 120.105 293.246 118.303C293.106 116.5 293.001 115.287 292.931 114.663C292.861 114.039 292.861 112.479 292.931 109.983C293.001 107.487 293.106 104.748 293.246 101.767C293.386 98.7159 293.526 95.8039 293.666 93.0305C293.806 90.1879 293.876 88.1078 293.876 86.7905C293.876 86.0972 293.911 85.3692 293.981 84.6065C293.981 83.9825 293.981 83.3238 293.981 82.6305C294.051 81.8678 294.086 81.1398 294.086 80.4465L278.862 80.3425L278.233 74.4144L293.561 74.8304C293.421 74.0678 293.246 73.3744 293.036 72.7504C292.896 72.0571 292.756 71.5024 292.616 71.0864C292.406 70.6011 292.196 70.1851 291.986 69.8384C291.706 69.4918 291.391 69.1104 291.041 68.6944C290.691 68.3477 290.236 67.8971 289.677 67.3424C289.117 66.7877 288.452 66.1637 287.682 65.4704Z" fill="#63622E"/>
<path d="M353.721 84.3985C355.541 84.3985 357.431 84.7452 359.39 85.4385C361.35 86.0625 363.24 86.8945 365.06 87.9345C366.88 88.9052 368.525 89.9799 369.994 91.1585C371.534 92.2679 372.794 93.3425 373.774 94.3825C375.524 96.2545 376.714 98.7852 377.344 101.975C378.044 105.095 378.184 108.319 377.764 111.647C377.344 114.905 376.364 117.991 374.824 120.903C373.284 123.815 371.149 125.964 368.42 127.351C366.46 128.321 364.535 129.084 362.645 129.639C360.755 130.193 358.935 130.609 357.186 130.887C355.436 131.164 353.791 131.303 352.251 131.303C350.711 131.303 349.381 131.268 348.261 131.199C346.162 131.06 343.957 130.332 341.647 129.015C339.407 127.697 337.272 126.068 335.243 124.127C333.283 122.185 331.603 120.071 330.203 117.783C328.803 115.425 327.963 113.207 327.683 111.127C327.263 108.284 327.193 105.303 327.473 102.183C327.753 99.0626 328.768 96.1852 330.518 93.5505C332.338 90.9159 335.068 88.7318 338.707 86.9985C342.417 85.2652 347.421 84.3985 353.721 84.3985ZM350.256 124.751C351.026 124.889 352.076 124.716 353.406 124.231C354.736 123.676 356.031 122.809 357.291 121.631C358.62 120.452 359.775 118.961 360.755 117.159C361.805 115.287 362.435 113.033 362.645 110.399C362.855 107.833 362.855 105.476 362.645 103.327C362.505 101.177 362.19 99.3052 361.7 97.7106C361.21 96.0465 360.65 94.6945 360.02 93.6545C359.39 92.6145 358.725 91.8865 358.026 91.4705C356.836 90.8465 355.401 90.3612 353.721 90.0145C352.041 89.5985 350.606 89.6679 349.416 90.2225C348.856 90.4999 348.156 91.0892 347.316 91.9905C346.477 92.8919 345.637 94.0359 344.797 95.4225C343.957 96.7399 343.187 98.2652 342.487 99.9986C341.857 101.732 341.402 103.535 341.122 105.407C340.842 107.279 340.772 109.289 340.912 111.439C341.122 113.588 341.577 115.633 342.277 117.575C342.977 119.447 343.957 121.076 345.217 122.463C346.547 123.78 348.226 124.543 350.256 124.751Z" fill="#63622E"/>
</svg>
